<svg xmlns="http://www.w3.org/2000/svg" viewBox="0 0 47.99998 60" x="0px" y="0px"><g><path d="M14.60993,17.38A3.37515,3.37515,0,0,1,14.61,24.13,3.37515,3.37515,0,0,1,14.60993,17.38Zm22.98015-6.33A2.4552,2.4552,0,0,0,37.59,6.14,2.4552,2.4552,0,0,0,37.59008,11.05Zm5.08,31.87981c-5.03884,4.8719-13.80166.24545-12.53882-6.7351l-5.83289-5.83246A11.4886,11.4886,0,0,1,22.67,32.35a.0098.0098,0,0,0-.01.01C15.42,39.47635,2.89422,34.245,2.91013,24.0002,2.96149,12.413,18.09466,8.05116,24.31188,17.653l5.81756-5.81757A7.53275,7.53275,0,1,1,45.09,10.58979c-.03953,7.90488-10.73212,10.37962-14.25881,3.372l-5.5304,5.5304a11.699,11.699,0,0,1-.0097,9.03473l5.52734,5.52691A7.52771,7.52771,0,0,1,37.56,29.88C44.36526,29.836,47.66345,38.42342,42.6701,42.9298ZM32.99,13.72a5.91842,5.91842,0,0,1,9.16-.05,5.53577,5.53577,0,1,0-9.16.05Zm-26.16,16.05c3.22014-5.882,12.209-5.94449,15.48-.03,4.7349-6.14262.0669-15.50465-7.75-15.39C6.72725,14.23465,2.06505,23.63018,6.83007,29.77Zm30.73011,2.11016A5.565,5.565,0,0,0,33.00005,40.55a5.89861,5.89861,0,0,1,9.15-.06A5.56406,5.56406,0,0,0,37.56018,31.88012Zm.0299,1.07984a2.46017,2.46017,0,0,0,.00007,4.92A2.46017,2.46017,0,0,0,37.59008,32.96Z"/></g><text x="0" y="0" fill="#000000" font-size="5px" font-weight="bold" font-family="'Helvetica Neue', Helvetica, Arial-Unicode, Arial, Sans-serif">Created by Zky Icon</text><text x="0" y="0" fill="#000000" font-size="5px" font-weight="bold" font-family="'Helvetica Neue', Helvetica, Arial-Unicode, Arial, Sans-serif">from the Noun Project</text></svg>